{"title":"Child's Play 1988 DVDrip English Klam","uid":6695769,"size":767944373,"categoryP":"video","categoryS":"movies","magnet":"?xt=urn:btih:78b46afd475cbafc7050c11848ce49215676dad3&amp;dn=Child%5C%27s+Play+1988+DVDrip+English+Klam&amp;tr=udp%3A%2F%2Ftracker.openbittorrent.com%3A80&amp;tr=udp%3A%2F%2Fopen.demonii.com%3A1337&amp;tr=udp%3A%2F%2Ftracker.coppersurfer.tk%3A6969&amp;tr=udp%3A%2F%2Fexodus.desync.com%3A6969","seeders":0,"leechers":1,"uploader":"Klambake","files":6,"time":1316773744,"description":"With: Catherine Hicks, Chris Sarandon en de stem van Brad Dourif\n\nDe ellende begint als de kleine Andy ontdekt dat zijn pasgekregen pop 'Chucky' bezeten is door de ziel van een gruwelijke moordenaar. Een serie duistere en vooral ijzingwekkende moorden volgt. Dan probeert de pop bezit te nemen van Andy's geest.\n\nYoung Andy Barclay gets the doll he wanted. However, he did not know it was alive! \n\n------------------ Dutch Friends ------------------\nYou can find my Friends at: http://www.Film-Test.nl \n------ They got my dutch subs ----- and more ------\n\nGeneral:\n\nComplete name                    : Child's Play\\Child's Play.avi\nFormat                           : AVI\nFormat/Info                      : Audio Video Interleave\nFile size                        : 732 MiB\nDuration                         : 1h 23mn\nOverall bit rate                 : 1 226 Kbps\n\nVideo:\n\nFormat                           : MPEG-4 Visual\nFormat profile                   : Simple@L3\nFormat settings, BVOP            : No\nFormat settings, QPel            : No\nFormat settings, GMC             : No warppoints\nFormat settings, Matrix          : Default (H.263)\nCodec ID                         : XVID\nCodec ID/Hint                    : XviD\nDuration                         : 1h 23mn\nBit rate                         : 991 Kbps\nWidth                            : 652 pixels\nHeight                           : 352 pixels\nDisplay aspect ratio             : 1.852\nFrame rate                       : 25.000 fps\nColor space                      : YUV\nChroma subsampling               : 4:2:0\nBit depth                        : 8 bits\nScan type                        : Progressive\nBits/(Pixel*Frame)               : 0.173\nStream size                      : 592 MiB (81%)\nWriting library                  : XviD 1.1.2 (UTC 2006-11-01)\n\nAudio:\n\nFormat                           : AC-3\nFormat/Info                      : Audio Coding 3\nFormat profile                   : Dolby Digital\nMode extension                   : CM (complete main)\nCodec ID                         : 2000\nDuration                         : 1h 23mn\nBit rate mode                    : Constant\nBit rate                         : 224 Kbps\nChannel(s)                       : 2 channels\nChannel positions                : Front: L R\nSampling rate                    : 48.0 KHz\nBit depth                        : 16 bits\nStream size                      : 134 MiB (18%)\nAlignment                        : Aligned on interleaves\nInterleave, duration             : 32 ms (0.80 video frame)\nInterleave, preload duration     : 32 ms\n\n","torrent":{"xt":"urn:btih:78b46afd475cbafc7050c11848ce49215676dad3","amp;dn":"Child%5C%27s+Play+1988+DVDrip+English+Klam","amp;tr":["udp%3A%2F%2Ftracker.openbittorrent.com%3A80","udp%3A%2F%2Fopen.demonii.com%3A1337","udp%3A%2F%2Ftracker.coppersurfer.tk%3A6969","udp%3A%2F%2Fexodus.desync.com%3A6969"],"infoHash":"78b46afd475cbafc7050c11848ce49215676dad3","infoHashBuffer":{"type":"Buffer","data":[120,180,106,253,71,92,186,252,112,80,193,24,72,206,73,33,86,118,218,211]},"announce":[],"urlList":[]}}